<svg width="181" height="48" viewBox="0 0 181 48" fill="none" xmlns="http://www.w3.org/2000/svg">
<path d="M65.832 35H62.312V12.6H71.592V15.8H65.832V35ZM77.1995 17.752V29.848C77.1995 31.32 77.8075 32.056 79.0235 32.056C80.2395 32.056 80.8475 31.32 80.8475 29.848V17.752C80.8475 16.28 80.2395 15.544 79.0235 15.544C77.8075 15.544 77.1995 16.28 77.1995 17.752ZM73.6795 29.624V17.976C73.6795 16.184 74.1382 14.7973 75.0555 13.816C75.9728 12.8347 77.2955 12.344 79.0235 12.344C80.7515 12.344 82.0742 12.8347 82.9915 13.816C83.9088 14.7973 84.3675 16.184 84.3675 17.976V29.624C84.3675 31.416 83.9088 32.8027 82.9915 33.784C82.0742 34.7653 80.7515 35.256 79.0235 35.256C77.2955 35.256 75.9728 34.7653 75.0555 33.784C74.1382 32.8027 73.6795 31.416 73.6795 29.624ZM91.839 12.6C95.3377 12.6 97.087 14.4453 97.087 18.136V21.048C97.087 24.7387 95.3377 26.584 91.839 26.584H90.175V35H86.655V12.6H91.839ZM91.839 15.8H90.175V23.384H91.839C92.415 23.384 92.8417 23.224 93.119 22.904C93.4177 22.584 93.567 22.04 93.567 21.272V17.912C93.567 17.144 93.4177 16.6 93.119 16.28C92.8417 15.96 92.415 15.8 91.839 15.8ZM106.75 35L103.326 26.072L102.238 28.12V35H98.7175V12.6H102.238V22.36L106.845 12.6H110.366L105.47 22.584L110.366 35H106.75ZM123.552 12.6L119.776 29.304C119.328 31.48 118.613 33.016 117.632 33.912C116.65 34.808 114.997 35.1813 112.672 35.032V31.896C113.632 31.96 114.357 31.864 114.848 31.608C115.338 31.352 115.648 30.84 115.776 30.072L115.808 29.88L110.944 12.6H114.432L116.352 20.248L117.44 25.496L118.272 20.28L119.872 12.6H123.552ZM128.55 25.4V35H125.03V12.6H128.55V22.2H132.55V12.6H136.134V35H132.55V25.4H128.55ZM141.918 17.752V29.848C141.918 31.32 142.526 32.056 143.742 32.056C144.958 32.056 145.566 31.32 145.566 29.848V17.752C145.566 16.28 144.958 15.544 143.742 15.544C142.526 15.544 141.918 16.28 141.918 17.752ZM138.398 29.624V17.976C138.398 16.184 138.857 14.7973 139.774 13.816C140.692 12.8347 142.014 12.344 143.742 12.344C145.47 12.344 146.793 12.8347 147.71 13.816C148.628 14.7973 149.086 16.184 149.086 17.976V29.624C149.086 31.416 148.628 32.8027 147.71 33.784C146.793 34.7653 145.47 35.256 143.742 35.256C142.014 35.256 140.692 34.7653 139.774 33.784C138.857 32.8027 138.398 31.416 138.398 29.624ZM156.686 12.6C158.499 12.6 159.822 13.0267 160.654 13.88C161.486 14.712 161.902 16.0027 161.902 17.752V18.552C161.902 20.856 161.144 22.36 159.63 23.064C161.379 23.7467 162.254 25.3467 162.254 27.864V29.688C162.254 31.416 161.795 32.7387 160.878 33.656C159.982 34.552 158.659 35 156.91 35H151.374V12.6H156.686ZM156.462 24.92H154.894V31.8H156.91C157.528 31.8 157.987 31.64 158.286 31.32C158.584 30.9787 158.734 30.4027 158.734 29.592V27.64C158.734 26.616 158.552 25.912 158.19 25.528C157.848 25.1227 157.272 24.92 156.462 24.92ZM156.59 15.8H154.894V21.72H156.27C156.974 21.72 157.496 21.5387 157.838 21.176C158.2 20.8133 158.382 20.2053 158.382 19.352V18.104C158.382 16.568 157.784 15.8 156.59 15.8Z" fill="white"/>
<path fill-rule="evenodd" clip-rule="evenodd" d="M34.6928 29.4314C34.6928 30.2361 34.3056 30.9482 33.7116 31.3806L36.2988 36.8421C36.0547 36.9182 35.8272 37.0335 35.6231 37.181L33.0356 31.7195C32.5287 31.875 31.9744 31.847 31.4853 31.6395L27.8959 37.6213C28.4212 38.1658 28.5081 39.0245 28.1041 39.6672C27.5506 40.5467 26.3456 40.6736 25.6303 39.9345C25.1853 39.4742 25.0453 38.7826 25.2747 38.18L18.0688 33.015C18.2316 32.8207 18.3753 32.609 18.4981 32.3835L25.7038 37.5488C26.1278 37.162 26.7212 37.0364 27.2584 37.2166L30.8475 31.2345C30.4347 30.866 30.1497 30.3504 30.0697 29.7668C29.99 29.1812 30.1206 28.5885 30.4431 28.0971C26.7981 24.571 23.1528 21.0456 19.5084 17.5182C19.3203 17.6322 19.1034 17.7 18.8709 17.7074L16.2222 28.1941C16.9431 28.5137 17.4859 29.1767 17.6562 29.9823L28.7956 29.2724C28.785 29.5307 28.8 29.7877 28.8412 30.0427L17.7019 30.7526C17.6341 31.5261 17.2288 32.1991 16.6381 32.6148L20.9572 41.8699C20.72 41.9579 20.4938 42.0703 20.2816 42.2036L15.9622 32.9485C15.2547 33.1692 14.4784 33.05 13.865 32.6231L9.46969 37.5064C9.31219 37.3059 9.12625 37.1296 8.92 36.9834L13.3153 32.1002C12.6688 31.2656 12.6031 30.0848 13.1525 29.1806C13.6538 28.356 14.5563 27.905 15.4947 28.0004L18.1434 17.5134C18.0109 17.4318 17.8931 17.3271 17.7953 17.205L3.84281 23.3211C3.77781 23.068 3.67781 22.8293 3.54781 22.6115L17.5006 16.4951C17.4606 16.1472 17.5497 15.7984 17.7528 15.5157C17.9872 15.19 18.3584 14.9741 18.7794 14.9587L21.2588 4.86873C20.78 4.66058 20.3787 4.3008 20.1112 3.84884L10.8837 7.77742C10.8122 7.52815 10.7153 7.28947 10.5966 7.06526L19.8244 3.13637C19.605 2.21189 19.9069 1.23634 20.6112 0.612519C22.1819 -0.779344 24.6862 0.345254 24.6862 2.53343C24.6862 3.47429 24.1878 4.2947 23.4481 4.73253L25.1966 9.38932C24.9494 9.45035 24.7147 9.54447 24.4972 9.66717L22.7484 5.01007C22.4994 5.06597 22.2416 5.08203 21.9878 5.05729L19.5084 15.1472C20.1178 15.5167 20.3409 16.313 20.0222 16.9561L30.9569 27.5349C31.3481 27.2265 31.8375 27.0428 32.3691 27.0428C33.6525 27.0431 34.6928 28.1125 34.6928 29.4314ZM26.7775 13.5861C27.2337 13.2591 27.4872 12.7227 27.46 12.1522L34.7603 9.90905C35.265 10.9993 36.4419 11.5679 37.575 11.2842L41.5622 21.1792C41.7787 21.0536 42.0113 20.954 42.2553 20.8837L38.2681 10.989C38.9797 10.5441 39.4547 9.73977 39.4547 8.82139C39.4547 7.4215 38.3506 6.28629 36.9884 6.28629C36.095 6.28629 35.3125 6.77488 34.8797 7.5063L25.7853 3.63395C25.7125 3.88258 25.6159 4.12124 25.4978 4.3461L34.5928 8.21845C34.5194 8.52875 34.5034 8.85287 34.5456 9.16863L27.245 11.4121C27.0334 11.0398 26.6834 10.7609 26.2675 10.6501C25.5153 10.4494 24.7262 10.8355 24.4072 11.5704C24.255 11.9209 24.2281 12.3208 24.3297 12.6892L20.8775 14.6982C21.0306 14.9002 21.1563 15.126 21.2478 15.3689L24.7 13.3603C25.0544 13.7493 25.5662 13.9359 26.0787 13.8656L30.7309 26.1617C30.9516 26.0444 31.1856 25.9503 31.43 25.8819L26.7775 13.5861ZM16.4694 15.2324C16.5741 14.9956 16.7116 14.7769 16.8759 14.5832L9.58625 9.7706C9.97875 8.8397 9.75188 7.74497 9.02 7.05819C7.55438 5.68239 5.13125 6.72766 5.13125 8.82172C5.13125 9.67874 5.57062 10.4301 6.23062 10.8512L1.4825 22.634C0.69312 22.5454 -1.08483e-06 23.182 -1.04902e-06 24.0011C-1.01583e-06 24.7605 0.599063 25.3763 1.33781 25.3763C1.7425 25.3763 2.10531 25.1916 2.35031 24.8996L11.7228 29.2943C11.8041 29.0482 11.9087 28.8137 12.0347 28.5934L2.66156 24.1987C2.72937 23.7165 2.54562 23.2357 2.17531 22.9295L6.92312 11.147C7.74625 11.3446 8.61156 11.0683 9.18 10.4201L16.4694 15.2324ZM45 24.0008C45 22.9254 44.1519 22.0532 43.1053 22.0532C42.5822 22.0532 42.1084 22.2714 41.7656 22.6234L28.4281 13.5241C28.3172 13.758 28.1772 13.9732 28.0122 14.1669L41.35 23.2662C41.1963 23.6545 41.1691 24.0917 41.2728 24.4974L35.3956 27.47C35.5287 27.6862 35.6403 27.9185 35.7278 28.1619L41.605 25.1893C41.7291 25.3551 41.8791 25.4993 42.0481 25.6169L37.54 36.8032C37.7884 36.8639 38.0216 36.9648 38.2331 37.0984L42.7409 25.9118C43.9059 26.1437 45 25.2337 45 24.0008ZM8.78406 39.3293C8.82875 38.912 8.68531 38.4973 8.39406 38.2018C8.1075 37.9108 7.70938 37.7682 7.30906 37.8134L2.66531 26.2892C2.45218 26.4203 2.21938 26.5205 1.9725 26.5844L6.61625 38.1083C6.31156 38.3605 6.11625 38.7466 6.11625 39.1799C6.11625 39.9393 6.71531 40.5551 7.45406 40.5551C7.87562 40.5551 8.25156 40.3543 8.49688 40.0414L19.8253 44.8649C19.6691 45.5241 19.7756 46.225 20.1247 46.8029C20.9856 48.2288 22.9372 48.4129 24.0375 47.1826C24.5963 46.5575 24.8119 45.6866 24.6172 44.8649L36.1547 39.9525C36.36 40.1866 36.6575 40.3341 36.9884 40.3341C37.6084 40.3341 38.1112 39.8176 38.1112 39.1802C38.1112 38.5433 37.6088 38.0267 36.9884 38.0267C36.5153 38.0267 36.1103 38.3277 35.9453 38.7533L29.6006 38.5031C29.6238 38.7598 29.6141 39.0196 29.5722 39.2734L35.2622 39.4979L24.33 44.1525C24.2169 43.9613 24.08 43.7866 23.9231 43.6331L25.4522 41.3803C25.2284 41.2608 25.0222 41.1124 24.8378 40.9389L23.3088 43.192C22.6541 42.8608 21.8681 42.8486 21.2034 43.1583C20.7497 43.37 20.3691 43.7185 20.1122 44.1528L8.78406 39.3293ZM36.0534 8.82139C36.0534 9.35237 36.4719 9.78282 36.9884 9.78282C37.505 9.78282 37.9237 9.35237 37.9237 8.82139C37.9237 8.29041 37.505 7.85997 36.9884 7.85997C36.4719 7.85997 36.0534 8.29041 36.0534 8.82139ZM21.2862 2.53375C21.2862 3.06474 21.705 3.49518 22.2216 3.49518C22.7381 3.49518 23.1569 3.06474 23.1569 2.53375C23.1569 2.00309 22.7381 1.57265 22.2216 1.57265C21.705 1.57265 21.2862 2.00309 21.2862 2.53375ZM6.51875 8.82139C6.51875 9.35238 6.9375 9.78282 7.45406 9.78282C7.97062 9.78282 8.38938 9.35238 8.38938 8.82139C8.38938 8.29041 7.97062 7.85997 7.45406 7.85997C6.9375 7.85997 6.51875 8.29041 6.51875 8.82139ZM14.3116 30.5226C14.3116 31.0536 14.7303 31.484 15.2469 31.484C15.7634 31.484 16.1822 31.0536 16.1822 30.5226C16.1822 29.9916 15.7638 29.5612 15.2469 29.5612C14.7303 29.5612 14.3116 29.9916 14.3116 30.5226ZM31.4347 29.4314C31.4347 29.9621 31.8534 30.3928 32.37 30.3928C32.8863 30.3928 33.3053 29.9621 33.3053 29.4314C33.3053 28.9004 32.8863 28.47 32.37 28.47C31.8534 28.4697 31.4347 28.9001 31.4347 29.4314ZM21.2862 45.4679C21.2862 44.9369 21.705 44.5065 22.2216 44.5065C22.7381 44.5065 23.1569 44.9369 23.1569 45.4679C23.1569 45.9989 22.7381 46.4293 22.2216 46.4293C21.705 46.4293 21.2862 45.9989 21.2862 45.4679Z" fill="#00F0C0"/>
</svg>
